<?xml version="1.0" standalone="no"?><svg xmlns="http://www.w3.org/2000/svg" viewBox="0 0 1440 320"><path fill="#0099ff" fill-opacity="1" d="M0,256L6.2,245.3C12.3,235,25,213,37,192C49.2,171,62,149,74,128C86.2,107,98,85,111,64C123.1,43,135,21,148,32C160,43,172,85,185,90.7C196.9,96,209,64,222,53.3C233.8,43,246,53,258,58.7C270.8,64,283,64,295,96C307.7,128,320,192,332,181.3C344.6,171,357,85,369,74.7C381.5,64,394,128,406,165.3C418.5,203,431,213,443,208C455.4,203,468,181,480,154.7C492.3,128,505,96,517,101.3C529.2,107,542,149,554,149.3C566.2,149,578,107,591,117.3C603.1,128,615,192,628,229.3C640,267,652,277,665,261.3C676.9,245,689,203,702,186.7C713.8,171,726,181,738,176C750.8,171,763,149,775,122.7C787.7,96,800,64,812,58.7C824.6,53,837,75,849,101.3C861.5,128,874,160,886,197.3C898.5,235,911,277,923,256C935.4,235,948,149,960,144C972.3,139,985,213,997,245.3C1009.2,277,1022,267,1034,266.7C1046.2,267,1058,277,1071,240C1083.1,203,1095,117,1108,122.7C1120,128,1132,224,1145,245.3C1156.9,267,1169,213,1182,197.3C1193.8,181,1206,203,1218,181.3C1230.8,160,1243,96,1255,112C1267.7,128,1280,224,1292,245.3C1304.6,267,1317,213,1329,186.7C1341.5,160,1354,160,1366,133.3C1378.5,107,1391,53,1403,37.3C1415.4,21,1428,43,1434,53.3L1440,64L1440,320L1433.8,320C1427.7,320,1415,320,1403,320C1390.8,320,1378,320,1366,320C1353.8,320,1342,320,1329,320C1316.9,320,1305,320,1292,320C1280,320,1268,320,1255,320C1243.1,320,1231,320,1218,320C1206.2,320,1194,320,1182,320C1169.2,320,1157,320,1145,320C1132.3,320,1120,320,1108,320C1095.4,320,1083,320,1071,320C1058.5,320,1046,320,1034,320C1021.5,320,1009,320,997,320C984.6,320,972,320,960,320C947.7,320,935,320,923,320C910.8,320,898,320,886,320C873.8,320,862,320,849,320C836.9,320,825,320,812,320C800,320,788,320,775,320C763.1,320,751,320,738,320C726.2,320,714,320,702,320C689.2,320,677,320,665,320C652.3,320,640,320,628,320C615.4,320,603,320,591,320C578.5,320,566,320,554,320C541.5,320,529,320,517,320C504.6,320,492,320,480,320C467.7,320,455,320,443,320C430.8,320,418,320,406,320C393.8,320,382,320,369,320C356.9,320,345,320,332,320C320,320,308,320,295,320C283.1,320,271,320,258,320C246.2,320,234,320,222,320C209.2,320,197,320,185,320C172.3,320,160,320,148,320C135.4,320,123,320,111,320C98.5,320,86,320,74,320C61.5,320,49,320,37,320C24.6,320,12,320,6,320L0,320Z"></path></svg>