<?xml version="1.0" standalone="no"?><svg xmlns="http://www.w3.org/2000/svg" viewBox="0 0 1440 320"><path fill="#0099ff" fill-opacity="1" d="M0,96L14.1,133.3C28.2,171,56,245,85,240C112.9,235,141,149,169,112C197.6,75,226,85,254,90.7C282.4,96,311,96,339,96C367.1,96,395,96,424,117.3C451.8,139,480,181,508,202.7C536.5,224,565,224,593,229.3C621.2,235,649,245,678,261.3C705.9,277,734,299,762,304C790.6,309,819,299,847,250.7C875.3,203,904,117,932,101.3C960,85,988,139,1016,176C1044.7,213,1073,235,1101,245.3C1129.4,256,1158,256,1186,256C1214.1,256,1242,256,1271,261.3C1298.8,267,1327,277,1355,245.3C1383.5,213,1412,139,1426,101.3L1440,64L1440,320L1425.9,320C1411.8,320,1384,320,1355,320C1327.1,320,1299,320,1271,320C1242.4,320,1214,320,1186,320C1157.6,320,1129,320,1101,320C1072.9,320,1045,320,1016,320C988.2,320,960,320,932,320C903.5,320,875,320,847,320C818.8,320,791,320,762,320C734.1,320,706,320,678,320C649.4,320,621,320,593,320C564.7,320,536,320,508,320C480,320,452,320,424,320C395.3,320,367,320,339,320C310.6,320,282,320,254,320C225.9,320,198,320,169,320C141.2,320,113,320,85,320C56.5,320,28,320,14,320L0,320Z"></path></svg>